<svg version="1.2" xmlns="http://www.w3.org/2000/svg" viewBox="0 0 160 181" width="512" height="512">
	<title>Rubium Logomark</title>
	<style>
		.s0 { fill: #f45b69 } 
	</style>
	<path id="Layer" fill-rule="evenodd" class="s0" d="m152.7 140.1c-22.2 12.9-44.4 25.7-66.6 38.6-4.2 2.4-8 2.7-12.2 0.2-17.7-10.3-35.7-20.1-53.1-30.9-28-17.3-27.4-57.5 0.7-75 4.9-3.1 4.9-3.1 0-6-5.1-3-10.4-5.8-15.5-9-7.9-4.9-8-12.2-0.1-16.8 22.8-13.3 45.6-26.4 68.4-39.6q1.2-0.8 2.5-1.2 1.4-0.4 2.9-0.4 1.4 0 2.8 0.4 1.4 0.4 2.6 1.2c17.9 10.4 36.1 20.2 53.6 31.1 28.3 17.6 27.3 58.8-1.5 75.6-1.1 0.7-2.2 1.4-4.2 2.6 7.1 4.1 13.5 7.6 19.7 11.4 9 5.3 9 12.6 0 17.8zm-63.8-65.3c8-4.7 15.3-8.6 22.3-13.1 6.2-3.9 8.1-10.7 5.6-17.5q-0.9-2.2-2.4-4-1.6-1.9-3.6-3.1-2-1.3-4.3-1.8-2.4-0.5-4.7-0.3c-6.8 0.8-12.4 5.8-12.8 12.6-0.5 8.8-0.1 17.6-0.1 27.2zm-18.4 47.1v-12.5c0-1.6-0.2-3.3-2.5-1.9-7.2 4.2-14.6 8.1-21.4 12.9-5.4 3.8-6.4 11.3-3.5 17.2 3.1 6.3 9.4 9.1 16.7 7.7 6.2-1.3 10.4-6.5 10.6-13.4 0.2-3.3 0.1-6.6 0.1-10zm0.1-70.1c0-10.3 3.1-19.3 11-26.3 1-1 4-1.8 2-4-1.6-1.7-3.7-2.7-6.3-1.1q-23.3 13.5-46.7 27c-3 1.7-2.5 3 0.1 4.4 5.5 3.2 11 6.3 16.5 9.5 8.1 4.9 8.2 12.3 0.2 17.2-5.7 3.4-11.6 6.5-17.2 10.1-13 8.3-16.1 25.6-6.3 38.4 2.3-13.4 10.2-21.2 21.1-26.9 7.3-3.8 14.2-8.2 21.3-12.1q1-0.5 1.9-1.2 0.8-0.8 1.4-1.7 0.6-1 0.8-2.1 0.3-1.1 0.2-2.2c-0.2-9.7-0.1-19.3 0-29zm58.6 77.4c-5.7-3.2-11.3-6.4-16.9-9.7-8.2-4.9-8.2-12.3-0.2-17.2 5.6-3.5 11.6-6.5 17.2-10.1 12.8-8.3 15.9-25 6.3-38.4-2.5 15.6-13 22.8-24.9 29-5.7 3-11.1 6.7-16.9 9.7-3.7 1.9-5.3 4.3-5.2 8.6 0.3 9.6 0.1 19.3 0.1 29 0.1 10.4-3.5 19.3-11.7 25.9-3.1 2.4-2 3.3 0.7 4.6q0.6 0.2 1.2 0.4 0.6 0.1 1.2 0 0.7 0 1.2-0.2 0.6-0.2 1.1-0.6 23.4-13.5 46.8-27c2.7-1.5 2.5-2.6 0-4z"/>
</svg>